Coordinates
version=1
nRows=32
nColumns=22
inDegrees=yes

Units are S.I. units (second, meters, Newtons, ...)
If the header above contains a line with 'inDegrees', this indicates whether rotational values are in degrees (yes) or radians (no).

endheader
time	pelvis_tilt	pelvis_list	pelvis_rotation	pelvis_tx	pelvis_ty	pelvis_tz	hip_flexion_r	hip_adduction_r	hip_rotation_r	knee_angle_r	ankle_angle_r	subtalar_angle_r	hip_flexion_l	hip_adduction_l	hip_rotation_l	knee_angle_l	ankle_angle_l	subtalar_angle_l	lumbar_extension	lumbar_bending	lumbar_rotation
      0.01000000	     -4.56389263	     -7.11813218	      3.31423735	     -1.05343819	      0.97652658	      0.08581886	      7.02867465	      9.54826183	     -3.63375874	    -13.93979678	      9.55992451	     -0.93760891	      4.61335654	     -6.77688442	      6.18457910	     -8.70844391	     11.07898773	     -2.49928942	      4.64005084	      5.31643301	     -7.78876914
      0.02000000	     -4.56593294	     -7.12080850	      3.31580579	     -1.05348162	      0.97653080	      0.08571038	      7.03209105	      9.54462433	     -3.63075904	    -13.93709627	      9.55802906	     -0.93681748	      4.61667765	     -6.77221857	      6.18495284	     -8.70557630	     11.08027735	     -2.50163862	      4.63305204	      5.32507675	     -7.78642761
      0.03000000	     -4.56821769	     -7.12388218	      3.31647883	     -1.05353526	      0.97653397	      0.08558799	      7.03596373	      9.54031890	     -3.62762002	    -13.93373010	      9.55582640	     -0.93611105	      4.62168024	     -6.76733567	      6.18646002	     -8.70371543	     11.08136810	     -2.50399915	      4.62289831	      5.33372803	     -7.78522379
      0.04000000	     -4.57759328	     -7.14336961	      3.32381123	     -1.05362467	      0.97652637	      0.08544885	      7.04080383	      9.55409500	     -3.60160618	    -13.91060753	      9.51770904	     -0.91629685	      4.65891954	     -6.77577400	      6.20987027	     -8.74006328	     11.09660148	     -2.58248913	      4.61753800	      5.35988059	     -7.79760842
      0.05000000	     -4.58012064	     -7.14702451	      3.32375603	     -1.05368087	      0.97653054	      0.08529277	      7.04557965	      9.54795074	     -3.60096165	    -13.90771380	      9.51832811	     -0.91642854	      4.66395930	     -6.76898724	      6.21027229	     -8.73709627	     11.09568284	     -2.58353137	      4.60502203	      5.37006651	     -7.79819875
      0.06000000	     -4.57540496	     -7.15046214	      3.32663105	     -1.05377479	      0.97653860	      0.08512513	      7.05137740	      9.54196097	     -3.59177143	    -13.91669658	      9.51621144	     -0.91563624	      4.67862659	     -6.76013551	      6.22286905	     -8.76172455	     11.08417097	     -2.59653735	      4.57887624	      5.38175771	     -7.81225566
      0.07000000	     -4.57831950	     -7.15398476	      3.32351971	     -1.05382348	      0.97654010	      0.08494824	      7.05505768	      9.53420235	     -3.59173724	    -13.91209819	      9.51646189	     -0.91578885	      4.68368990	     -6.75207117	      6.22332385	     -8.76021266	     11.08410373	     -2.59805518	      4.56805535	      5.39423378	     -7.81446301
      0.08000000	     -4.57571352	     -7.15677882	      3.32159518	     -1.05390732	      0.97654563	      0.08476213	      7.06077006	      9.52636963	     -3.57810558	    -13.91852933	      9.51156539	     -0.91457623	      4.70145914	     -6.74080247	      6.22800455	     -8.78948455	     11.07940441	     -2.61663078	      4.54642845	      5.40782013	     -7.83737864
      0.09000000	     -4.57843768	     -7.16036166	      3.31578026	     -1.05394791	      0.97654667	      0.08456818	      7.06422658	      9.51759182	     -3.57785591	    -13.91513427	      9.51185789	     -0.91473007	      4.70533036	     -6.73148797	      6.22818727	     -8.78855287	     11.07965366	     -2.61832952	      4.53770753	      5.42262762	     -7.83993824
      0.10000000	     -4.59206708	     -7.15875527	      3.29512225	     -1.05402782	      0.97652742	      0.08438017	      7.09255895	      9.50372180	     -3.55417356	    -13.93492262	      9.51802406	     -0.90738660	      4.74291375	     -6.71374846	      6.20222899	     -8.82979011	     11.08385506	     -2.69534387	      4.53616313	      5.43598245	     -7.85001795
      0.11000000	     -4.59358583	     -7.16101788	      3.27845463	     -1.05405849	      0.97653054	      0.08417844	      7.10012330	      9.49308538	     -3.54682435	    -13.94432124	      9.51569425	     -0.90665408	      4.74104077	     -6.70266746	      6.20463049	     -8.82810531	     11.08172029	     -2.69946606	      4.52852966	      5.45473468	     -7.86112100
      0.12000000	     -4.59525287	     -7.15871177	      3.26003032	     -1.05410794	      0.97653073	      0.08397704	      7.11640199	      9.47886328	     -3.52380396	    -13.96916776	      9.51530243	     -0.90383861	      4.73949796	     -6.68697896	      6.19157238	     -8.82382630	     11.07857323	     -2.71277725	      4.51700471	      5.46939294	     -7.87349511
      0.13000000	     -4.60485602	     -7.14381392	      3.21758673	     -1.05412116	      0.97652431	      0.08378278	      7.13459688	      9.45106120	     -3.48804288	    -13.99202731	      9.53279887	     -0.89416824	      4.73823446	     -6.65745524	      6.14853322	     -8.81997953	     11.07003692	     -2.75196356	      4.51831687	      5.47316780	     -7.85016948
      0.14000000	     -4.60704755	     -7.14624978	      3.20553809	     -1.05412871	      0.97652621	      0.08355496	      7.13648305	      9.43943768	     -3.48649666	    -13.99203328	      9.53267180	     -0.89413583	      4.73696984	     -6.64463730	      6.14859085	     -8.81892137	     11.07017685	     -2.75285755	      4.51445069	      5.49410035	     -7.85643643
      0.15000000	     -4.60839876	     -7.14282390	      3.17989231	     -1.05411770	      0.97652921	      0.08334844	      7.14712421	      9.42430443	     -3.46250931	    -14.01594165	      9.53313274	     -0.89179079	      4.72271524	     -6.62773726	      6.12858222	     -8.80405000	     11.07173008	     -2.76288476	      4.51101332	      5.50904990	     -7.88646499
      0.16000000	     -4.61090936	     -7.13535547	      3.15189867	     -1.05408552	      0.97653223	      0.08313729	      7.15168285	      9.40427934	     -3.43673095	    -14.03025492	      9.54397805	     -0.88935167	      4.70575020	     -6.60681933	      6.10153527	     -8.78524519	     11.06805653	     -2.77979705	      4.51134099	      5.51980032	     -7.89671801
      0.17000000	     -4.61083354	     -7.12908420	      3.12826490	     -1.05404274	      0.97654012	      0.08291959	      7.14964002	      9.38580242	     -3.41197944	    -14.03821395	      9.55390262	     -0.88819097	      4.68659586	     -6.58639998	      6.08162178	     -8.76805327	     11.06179061	     -2.79865343	      4.51010130	      5.53093967	     -7.90447621
      0.18000000	     -4.61230726	     -7.13024543	      3.11400490	     -1.05400267	      0.97654351	      0.08269283	      7.14675210	      9.37308198	     -3.40632454	    -14.03876840	      9.55632732	     -0.88890229	      4.67828202	     -6.57326231	      6.07857661	     -8.76365249	     11.06038685	     -2.80384645	      4.51058371	      5.54906301	     -7.91294310
      0.19000000	     -4.61101022	     -7.12879567	      3.10736592	     -1.05395020	      0.97654921	      0.08245944	      7.14190118	      9.35954307	     -3.38350114	    -14.04316120	      9.56315331	     -0.89247176	      4.65771287	     -6.55793752	      6.06418938	     -8.73951162	     11.05813488	     -2.81813547	      4.51150208	      5.56318321	     -7.93767957
      0.20000000	     -4.61243319	     -7.13211523	      3.10472190	     -1.05391396	      0.97654988	      0.08221833	      7.13967594	      9.34877787	     -3.38050878	    -14.04345496	      9.56383554	     -0.89337791	      4.65399404	     -6.54581220	      6.06351495	     -8.73769157	     11.05780109	     -2.81944696	      4.51285674	      5.58230153	     -7.94098899
      0.21000000	     -4.61134307	     -7.13213082	      3.09849633	     -1.05385451	      0.97655604	      0.08199202	      7.13145940	      9.33763076	     -3.35257645	    -14.04284529	      9.57076165	     -0.90032037	      4.62931454	     -6.53320292	      6.05363890	     -8.70662093	     11.05683984	     -2.83457988	      4.51447211	      5.59678079	     -7.97863314
      0.22000000	     -4.61265208	     -7.13570019	      3.09777810	     -1.05382196	      0.97655592	      0.08175878	      7.12943729	      9.32771263	     -3.34941836	    -14.04250828	      9.57109960	     -0.90136304	      4.62584395	     -6.52224033	      6.05342707	     -8.70443829	     11.05656507	     -2.83594891	      4.51506915	      5.61476146	     -7.98090408
      0.23000000	     -4.59129805	     -7.13926029	      3.08780127	     -1.05372851	      0.97659283	      0.08155145	      7.08132485	      9.32530857	     -3.30255235	    -14.01287724	      9.57347546	     -0.92513543	      4.56276872	     -6.51724126	      6.06187154	     -8.64982437	     11.03848842	     -2.89253398	      4.49608053	      5.63325197	     -7.99693863
      0.24000000	     -4.59280853	     -7.14328002	      3.08808426	     -1.05370229	      0.97659250	      0.08133139	      7.08173210	      9.31649120	     -3.30086326	    -14.01501018	      9.57202432	     -0.92555241	      4.56065299	     -6.50754852	      6.05959019	     -8.64798019	     11.03969353	     -2.89336656	      4.49473021	      5.64934058	     -8.00001726
      0.25000000	     -4.59310914	     -7.14956876	      3.07852762	     -1.05366883	      0.97659458	      0.08113584	      7.08657253	      9.31176508	     -3.29208962	    -14.02910057	      9.56206856	     -0.92533531	      4.54828645	     -6.50295969	      6.04744502	     -8.63383790	     11.04933227	     -2.90060535	      4.49096748	      5.66786120	     -8.02445843
      0.26000000	     -4.59570621	     -7.15413153	      3.07425457	     -1.05364049	      0.97659340	      0.08093406	      7.08719731	      9.30417360	     -3.29096225	    -14.02915825	      9.56103644	     -0.92527022	      4.54675988	     -6.49527263	      6.04691877	     -8.63260278	     11.05014306	     -2.90129025	      4.48830940	      5.68248986	     -8.02625984
      0.27000000	     -4.59886474	     -7.15909130	      3.06397634	     -1.05361208	      0.97659171	      0.08074044	      7.08916708	      9.29761148	     -3.28949619	    -14.03086557	      9.55846970	     -0.92453405	      4.54441853	     -6.48828140	      6.04609747	     -8.63106338	     11.05162868	     -2.90235877	      4.48371134	      5.69801933	     -8.03076919
      0.28000000	     -4.59808388	     -7.17597536	      3.03803680	     -1.05359178	      0.97659255	      0.08059190	      7.10390898	      9.30755335	     -3.26934926	    -14.06143064	      9.53401507	     -0.91206524	      4.53127623	     -6.49879268	      6.02259602	     -8.61953799	     11.06404881	     -2.91537996	      4.46971992	      5.72450163	     -8.03912950
      0.29000000	     -4.59739922	     -7.19426533	      3.00441810	     -1.05356304	      0.97659166	      0.08043970	      7.11013784	      9.31872796	     -3.24868411	    -14.07763033	      9.51774024	     -0.89095899	      4.52564499	     -6.50922177	      5.99132355	     -8.62491221	     11.07512245	     -2.93737411	      4.45461983	      5.75408279	     -8.01918063
      0.30000000	     -4.60201517	     -7.19939119	      2.99236394	     -1.05352840	      0.97658349	      0.08024821	      7.11235884	      9.31220565	     -3.24830703	    -14.07618358	      9.51744009	     -0.88983956	      4.52597154	     -6.50247661	      5.99102229	     -8.62460657	     11.07620507	     -2.93867285	      4.44610340	      5.76527349	     -8.02209134
      0.31000000	     -4.59948358	     -7.20990322	      2.96404851	     -1.05351047	      0.97657944	      0.08007994	      7.12774986	      9.31398881	     -3.22782896	    -14.11216433	      9.50624812	     -0.87929851	      4.51797516	     -6.50320481	      5.97181773	     -8.62575498	     11.09109979	     -2.95140429	      4.42428669	      5.78399046	     -8.02968671
      0.32000000	     -4.60208787	     -7.22513251	      2.92509837	     -1.05348506	      0.97656615	      0.07990788	      7.13956708	      9.32032594	     -3.19848320	    -14.13314888	      9.50810422	     -0.85138273	      4.51625995	     -6.50877804	      5.92176328	     -8.63097486	     11.11708963	     -2.98655528	      4.40738751	      5.80981165	     -7.99366592
